<svg width="1000" height="1000" viewBox="0 0 1000 1000" fill="none" xmlns="http://www.w3.org/2000/svg">
<rect width="1000" height="1000" rx="64" fill="url(#paint0_linear_1_4)"/>
<path d="M208.333 529.167C223.804 529.167 238.642 523.021 249.581 512.081C260.521 501.142 266.667 486.304 266.667 470.833V354.167C266.667 338.696 272.812 323.858 283.752 312.919C294.692 301.979 309.529 295.833 325 295.833C340.471 295.833 355.308 301.979 366.248 312.919C377.188 323.858 383.333 338.696 383.333 354.167V733.333C383.333 748.804 389.479 763.642 400.419 774.581C411.358 785.521 426.196 791.667 441.667 791.667C457.138 791.667 471.975 785.521 482.915 774.581C493.854 763.642 500 748.804 500 733.333V266.667C500 251.196 506.146 236.358 517.085 225.419C528.025 214.479 542.862 208.333 558.333 208.333C573.804 208.333 588.642 214.479 599.581 225.419C610.521 236.358 616.667 251.196 616.667 266.667V645.833C616.667 661.304 622.812 676.142 633.752 687.081C644.692 698.021 659.529 704.167 675 704.167C690.471 704.167 705.308 698.021 716.248 687.081C727.187 676.142 733.333 661.304 733.333 645.833V529.167C733.333 513.696 739.479 498.858 750.419 487.919C761.358 476.979 776.196 470.833 791.667 470.833" stroke="white" stroke-width="48" stroke-linecap="round" stroke-linejoin="round"/>
<defs>
<linearGradient id="paint0_linear_1_4" x1="0" y1="1000" x2="1000" y2="0" gradientUnits="userSpaceOnUse">
<stop/>
<stop offset="0.495" stop-color="#212121"/>
<stop offset="1"/>
</linearGradient>
</defs>
</svg>
